<!DOCTYPE svg PUBLIC "-//W3C//DTD SVG 1.1//EN" "http://www.w3.org/Graphics/SVG/1.1/DTD/svg11.dtd">
<!-- Uploaded to: SVG Repo, www.svgrepo.com, Transformed by: SVG Repo Mixer Tools -->
<svg fill="#dddddd" xmlns="http://www.w3.org/2000/svg" width="800px" height="800px" viewBox="0 0 100 100" xml:space="preserve" stroke="#dddddd">
<g id="SVGRepo_bgCarrier" stroke-width="0"/>
<g id="SVGRepo_tracerCarrier" stroke-linecap="round" stroke-linejoin="round"/>
<g id="SVGRepo_iconCarrier"> <g> <g> <path opacity="0.5" d="M72,78H28c-3.3,0-6-2.7-6-6V28c0-3.3,2.7-6,6-6h44c3.3,0,6,2.7,6,6v44C78,75.3,75.3,78,72,78z M28,30v40 c0,1.1,0.9,2,2,2h40c1.1,0,2-0.9,2-2l0-40c0-1.1-0.9-2-2-2H30C28.9,28,28,28.9,28,30z"/> </g> </g> </g>
</svg>