<!DOCTYPE svg PUBLIC "-//W3C//DTD SVG 1.1//EN" "http://www.w3.org/Graphics/SVG/1.1/DTD/svg11.dtd">
<!-- Uploaded to: SVG Repo, www.svgrepo.com, Transformed by: SVG Repo Mixer Tools -->
<svg fill="#dddddd" height="800px" width="800px" version="1.1" id="Capa_1" xmlns="http://www.w3.org/2000/svg" xmlns:xlink="http://www.w3.org/1999/xlink" viewBox="0 0 397.356 397.356" xml:space="preserve" stroke="#dddddd">
<g id="SVGRepo_bgCarrier" stroke-width="0"/>
<g id="SVGRepo_tracerCarrier" stroke-linecap="round" stroke-linejoin="round"/>
<g id="SVGRepo_iconCarrier"> <path d="M395.545,261.209c-3.188-9.771-10.147-17.478-19.104-21.666l13.287-89.681c1.072-7.238-1.059-14.585-5.84-20.126 c-4.478-5.191-10.867-8.314-17.674-8.686V68.578c0-25.563-20.797-46.36-46.361-46.36h-75.279c-25.051,0-38.35,10.578-48.061,18.303 c-7.807,6.208-12.519,9.956-22.627,9.956H65.1c-22.781,0-41.314,18.062-41.314,40.263v30.311 c-6.805,0.372-13.195,3.495-17.674,8.686c-4.779,5.541-6.912,12.888-5.84,20.126l30.195,203.802 c1.828,12.338,12.418,21.475,24.891,21.475h284.047c7.74,0,15.141-2.405,21.397-6.951c11.295-8.206,16.844-21.852,14.478-35.603 l-3.416-19.923l14.48-14.113C396.33,288.809,399.862,274.517,395.545,261.209z M54.08,121.012V90.739 c0-6.239,5.604-9.967,11.02-9.967h108.787c20.688,0,32.219-9.172,41.484-16.542c8.553-6.802,14.732-11.716,29.203-11.716h75.279 c8.857,0,16.066,7.206,16.066,16.065v52.434H54.08z M373.555,280.65l-23.887,23.283l5.637,32.877 c0.736,4.277-1.022,8.601-4.531,11.151c-1.988,1.444-4.342,2.178-6.703,2.178c-1.816,0-3.637-0.433-5.307-1.311l-29.523-15.52 l-29.523,15.52c-3.846,2.019-8.498,1.684-12.01-0.867c-3.512-2.55-5.268-6.874-4.533-11.151l5.639-32.877l-23.889-23.283 c-3.107-3.03-4.227-7.561-2.887-11.689c1.346-4.126,4.914-7.135,9.205-7.758l33.01-4.797l14.762-29.911 c1.922-3.892,5.887-6.357,10.227-6.357c4.338,0,8.303,2.464,10.227,6.357l14.762,29.911l33.01,4.797 c4.291,0.624,7.859,3.632,9.205,7.758C377.781,273.089,376.662,277.619,373.555,280.65z"/> </g>
</svg>